<svg xmlns="http://www.w3.org/2000/svg" xmlns:xlink="http://www.w3.org/1999/xlink" preserveAspectRatio="xMidYMid" width="30" height="23.25" viewBox="0 0 30 23.25">
  <defs>
    <style>
      .cls-1 {
        fill: #f90;
        fill-rule: evenodd;
      }
    </style>
  </defs>
  <path d="M28.697,7.914 L28.143,7.914 L28.543,8.970 C28.822,9.710 29.051,10.963 29.051,11.755 L29.051,17.998 C29.051,18.922 28.307,19.678 27.398,19.678 C26.489,19.678 25.745,18.922 25.745,17.998 L25.745,17.038 L22.676,16.981 L22.676,21.563 C22.676,22.487 21.931,23.244 21.022,23.244 C20.113,23.244 19.369,22.487 19.369,21.563 L19.369,20.603 L4.256,20.603 L4.256,21.563 C4.256,22.487 3.512,23.244 2.603,23.244 C1.694,23.244 0.950,22.487 0.950,21.563 L0.950,15.321 C0.950,14.528 1.179,13.275 1.459,12.536 L1.859,11.479 L1.305,11.479 C0.590,11.479 0.006,10.885 0.006,10.159 C0.006,9.433 0.590,8.838 1.305,8.838 L2.858,8.838 L3.984,5.861 C4.264,5.122 5.105,4.339 5.855,4.121 C5.855,4.121 7.183,3.746 9.863,3.609 L10.360,2.296 C10.639,1.556 11.481,0.774 12.230,0.556 C12.230,0.556 14.174,-0.009 18.189,-0.009 C22.203,-0.009 24.146,0.556 24.146,0.556 C24.896,0.773 25.738,1.556 26.018,2.296 L27.144,5.273 L28.697,5.273 C29.411,5.273 29.996,5.867 29.996,6.593 C29.996,7.320 29.411,7.914 28.697,7.914 ZM19.488,16.521 C20.205,16.521 20.786,15.930 20.786,15.201 C20.786,14.471 20.205,13.880 19.488,13.880 C18.770,13.880 18.189,14.471 18.189,15.201 C18.189,15.930 18.770,16.521 19.488,16.521 ZM2.839,15.201 C2.839,15.929 3.421,16.521 4.138,16.521 C4.855,16.521 5.437,15.929 5.437,15.201 C5.437,14.472 4.855,13.880 4.138,13.880 C3.421,13.880 2.839,14.472 2.839,15.201 ZM5.510,6.888 L4.183,10.549 C4.093,10.796 4.233,10.999 4.492,10.999 L19.133,10.999 C19.393,10.999 19.532,10.796 19.442,10.549 L18.116,6.888 C18.026,6.640 17.740,6.437 17.480,6.437 L6.145,6.437 C5.886,6.437 5.600,6.640 5.510,6.888 ZM25.818,6.983 L24.491,3.322 C24.402,3.075 24.116,2.872 23.856,2.872 L12.521,2.872 C12.261,2.872 11.975,3.075 11.885,3.323 C11.885,3.323 11.852,3.415 11.801,3.557 C11.805,3.557 11.809,3.556 11.813,3.556 C15.827,3.556 17.771,4.121 17.771,4.121 C18.520,4.339 19.362,5.122 19.642,5.861 L20.286,7.564 C23.544,7.556 25.509,7.434 25.509,7.434 C25.769,7.434 25.908,7.231 25.818,6.983 ZM25.863,10.315 C25.146,10.315 24.565,10.906 24.565,11.635 C24.565,12.365 25.146,12.956 25.863,12.956 C26.581,12.956 27.162,12.365 27.162,11.635 C27.162,10.906 26.581,10.315 25.863,10.315 Z" class="cls-1"/>
</svg>
