<svg xmlns="http://www.w3.org/2000/svg" xmlns:xlink="http://www.w3.org/1999/xlink" preserveAspectRatio="xMidYMid" width="30" height="22.5" viewBox="0 0 30 22.5">
  <defs>
    <style>
      .cls-1 {
        fill: #ff1e00;
        fill-rule: evenodd;
      }
    </style>
  </defs>
  <path d="M28.930,6.649 L28.472,6.649 L28.803,7.535 C29.033,8.155 29.222,9.206 29.222,9.870 L29.222,15.106 C29.222,15.881 28.608,16.515 27.858,16.515 C27.108,16.515 26.494,15.881 26.494,15.106 L26.494,14.300 L23.961,14.252 L23.961,18.095 C23.961,18.871 23.348,19.505 22.597,19.505 C21.847,19.505 21.233,18.871 21.233,18.095 L21.233,17.290 L18.701,17.242 L18.701,21.085 C18.701,21.861 18.087,22.495 17.337,22.495 C16.587,22.495 15.973,21.861 15.973,21.085 L15.973,20.280 L3.503,20.280 L3.503,21.085 C3.503,21.861 2.889,22.495 2.139,22.495 C1.389,22.495 0.775,21.861 0.775,21.085 L0.775,15.850 C0.775,15.186 0.964,14.135 1.195,13.515 L1.524,12.629 L1.067,12.629 C0.478,12.629 -0.005,12.131 -0.005,11.521 C-0.005,10.913 0.478,10.414 1.067,10.414 L2.349,10.414 L3.278,7.918 C3.509,7.297 4.203,6.641 4.821,6.458 C4.821,6.458 5.918,6.144 8.129,6.029 L8.539,4.928 C8.770,4.307 9.464,3.651 10.082,3.468 C10.082,3.468 11.178,3.154 13.390,3.039 L13.799,1.938 C14.030,1.317 14.725,0.661 15.343,0.478 C15.343,0.478 16.947,0.005 20.259,0.005 C23.572,0.005 25.175,0.478 25.175,0.478 C25.793,0.661 26.488,1.317 26.719,1.938 L27.648,4.434 L28.930,4.434 C29.519,4.434 30.002,4.933 30.002,5.542 C30.002,6.151 29.519,6.649 28.930,6.649 ZM21.331,13.867 C21.923,13.867 22.402,13.371 22.402,12.760 C22.402,12.148 21.923,11.652 21.331,11.652 C20.739,11.652 20.259,12.148 20.259,12.760 C20.259,13.371 20.739,13.867 21.331,13.867 ZM16.070,16.857 C16.662,16.857 17.142,16.361 17.142,15.750 C17.142,15.138 16.662,14.642 16.070,14.642 C15.478,14.642 14.999,15.138 14.999,15.750 C14.999,16.361 15.478,16.857 16.070,16.857 ZM2.334,15.750 C2.334,16.361 2.813,16.857 3.405,16.857 C3.997,16.857 4.477,16.361 4.477,15.750 C4.477,15.139 3.997,14.642 3.405,14.642 C2.813,14.642 2.334,15.139 2.334,15.750 ZM4.537,8.779 L3.442,11.848 C3.368,12.056 3.483,12.226 3.698,12.226 L15.778,12.226 C15.992,12.226 16.107,12.056 16.033,11.848 L14.938,8.778 C14.865,8.571 14.628,8.401 14.414,8.401 L5.061,8.401 C4.847,8.401 4.611,8.571 4.537,8.779 ZM10.322,5.411 C10.108,5.411 9.872,5.581 9.798,5.789 C9.798,5.789 9.770,5.866 9.728,5.985 C9.731,5.985 9.734,5.985 9.738,5.985 C13.050,5.985 14.654,6.458 14.654,6.458 C15.272,6.640 15.967,7.297 16.198,7.918 L16.729,9.346 C19.418,9.338 21.039,9.236 21.039,9.236 C21.253,9.236 21.368,9.066 21.294,8.858 L20.199,5.788 C20.125,5.581 19.889,5.411 19.675,5.411 L10.322,5.411 ZM25.460,2.798 C25.386,2.591 25.150,2.421 24.936,2.421 L15.583,2.421 C15.369,2.421 15.133,2.591 15.058,2.799 C15.058,2.799 15.031,2.876 14.989,2.995 C14.992,2.995 14.995,2.995 14.999,2.995 C18.311,2.995 19.914,3.468 19.914,3.468 C20.533,3.651 21.227,4.307 21.458,4.928 L21.990,6.356 C24.678,6.349 26.300,6.246 26.300,6.246 C26.514,6.246 26.628,6.076 26.554,5.868 L25.460,2.798 ZM26.592,8.663 C26.000,8.663 25.520,9.158 25.520,9.770 C25.520,10.382 26.000,10.877 26.592,10.877 C27.184,10.877 27.663,10.382 27.663,9.770 C27.663,9.158 27.184,8.663 26.592,8.663 Z" class="cls-1"/>
</svg>
