<svg xmlns="http://www.w3.org/2000/svg" xmlns:xlink="http://www.w3.org/1999/xlink" preserveAspectRatio="xMidYMid" width="29.969" height="30" viewBox="0 0 29.969 30">
  <defs>
    <style>
      .cls-1 {
        fill: #f90;
        fill-rule: evenodd;
      }
    </style>
  </defs>
  <path d="M23.757,29.987 C23.539,29.987 23.319,29.921 23.131,29.790 L14.993,24.114 L6.951,29.785 C6.762,29.918 6.541,29.986 6.320,29.986 C6.095,29.986 5.871,29.917 5.681,29.780 C5.303,29.508 5.145,29.026 5.288,28.589 L8.488,18.865 L0.468,13.183 C0.080,12.917 -0.088,12.431 0.055,11.989 C0.197,11.545 0.615,11.244 1.089,11.244 L10.898,11.244 L13.968,0.718 C14.118,0.287 14.531,-0.003 14.993,-0.003 C15.455,-0.003 15.866,0.287 16.017,0.718 L19.086,11.244 L28.897,11.244 C29.370,11.244 29.789,11.545 29.930,11.989 C30.073,12.431 29.906,12.917 29.518,13.183 L21.497,18.865 L24.786,28.581 C24.933,29.018 24.779,29.502 24.403,29.775 C24.212,29.917 23.985,29.987 23.757,29.987 Z" class="cls-1"/>
</svg>
