<svg xmlns="http://www.w3.org/2000/svg" xmlns:xlink="http://www.w3.org/1999/xlink" preserveAspectRatio="xMidYMid" width="30" height="25.5" viewBox="0 0 30 25.5">
  <defs>
    <style>
      .cls-1 {
        fill: #29ac4a;
        fill-rule: evenodd;
      }
    </style>
  </defs>
  <path d="M30.011,8.545 C30.011,7.605 29.268,6.835 28.360,6.835 L26.386,6.835 L24.955,2.979 C24.599,2.022 23.529,1.007 22.577,0.725 C22.577,0.725 20.106,-0.006 15.004,-0.006 C9.902,-0.006 7.431,0.726 7.431,0.726 C6.479,1.008 5.409,2.022 5.054,2.980 L3.622,6.835 L1.648,6.835 C0.740,6.835 -0.002,7.605 -0.002,8.545 C-0.002,9.486 0.740,10.255 1.648,10.255 L2.352,10.255 L1.845,11.624 C1.489,12.581 1.198,14.205 1.198,15.231 L1.198,23.315 C1.198,24.512 2.144,25.492 3.299,25.492 C4.454,25.492 5.400,24.512 5.400,23.315 L5.400,22.072 L24.608,22.072 L24.608,23.315 C24.608,24.512 25.554,25.492 26.709,25.492 C27.865,25.492 28.810,24.512 28.810,23.315 L28.810,15.231 C28.810,14.205 28.519,12.581 28.164,11.624 L27.655,10.255 L28.360,10.255 C29.268,10.255 30.011,9.486 30.011,8.545 ZM5.307,9.050 L6.993,4.309 C7.107,3.988 7.471,3.725 7.801,3.725 L22.207,3.725 C22.537,3.725 22.901,3.988 23.015,4.309 L24.701,9.050 C24.815,9.371 24.638,9.633 24.308,9.633 L5.700,9.633 C5.370,9.633 5.193,9.371 5.307,9.050 ZM5.250,16.785 C4.338,16.785 3.599,16.019 3.599,15.075 C3.599,14.131 4.338,13.365 5.250,13.365 C6.161,13.365 6.901,14.131 6.901,15.075 C6.901,16.019 6.161,16.785 5.250,16.785 ZM24.759,16.785 C23.847,16.785 23.108,16.020 23.108,15.075 C23.108,14.131 23.847,13.365 24.759,13.365 C25.670,13.365 26.409,14.131 26.409,15.075 C26.409,16.020 25.670,16.785 24.759,16.785 Z" class="cls-1"/>
</svg>
