<svg xmlns="http://www.w3.org/2000/svg" xmlns:xlink="http://www.w3.org/1999/xlink" preserveAspectRatio="xMidYMid" width="31.969" height="31.625" viewBox="0 0 31.969 31.625">
  <defs>
    <style>
      .cls-1 {
        stroke: #f90;
        stroke-width: 2px;
        fill: none;
        fill-rule: evenodd;
      }
    </style>
  </defs>
  <path d="M24.754,30.612 C24.535,30.612 24.316,30.547 24.127,30.418 L15.989,24.812 L7.947,30.412 C7.759,30.544 7.537,30.612 7.317,30.612 C7.092,30.612 6.868,30.543 6.677,30.407 C6.300,30.139 6.141,29.663 6.285,29.231 L9.485,19.630 L1.464,14.018 C1.076,13.756 0.908,13.276 1.051,12.839 C1.193,12.400 1.611,12.103 2.085,12.103 L11.895,12.103 L14.965,1.709 C15.115,1.284 15.527,0.997 15.989,0.997 C16.451,0.997 16.863,1.284 17.014,1.709 L20.083,12.103 L29.893,12.103 C30.367,12.103 30.785,12.400 30.927,12.839 C31.070,13.276 30.902,13.756 30.514,14.018 L22.494,19.630 L25.782,29.224 C25.929,29.655 25.776,30.133 25.400,30.403 C25.209,30.543 24.982,30.612 24.754,30.612 Z" class="cls-1"/>
</svg>
